<svg xmlns="http://www.w3.org/2000/svg" width="29.261" height="29.365" viewBox="0 0 29.261 29.365">
  <g id="logout" transform="translate(29.261) rotate(90)">
    <g id="Grupo_4354" data-name="Grupo 4354">
      <g id="Grupo_4353" data-name="Grupo 4353">
        <path id="Caminho_2875" data-name="Caminho 2875" d="M14.634,26.823H3.658A1.219,1.219,0,0,1,2.439,25.6V3.652A1.219,1.219,0,0,1,3.658,2.439H14.633a1.219,1.219,0,1,0,0-2.439H3.658A3.663,3.663,0,0,0,0,3.652V25.6a3.663,3.663,0,0,0,3.658,3.658H14.633a1.219,1.219,0,0,0,0-2.439Z" fill="#ffffff"/>
      </g>
    </g>
    <g id="Grupo_4356" data-name="Grupo 4356" transform="translate(9.756 6.092)">
      <g id="Grupo_4355" data-name="Grupo 4355" transform="translate(0 0)">
        <path id="Caminho_2876" data-name="Caminho 2876" d="M19.246,7.668,11.831.351a1.219,1.219,0,1,0-1.712,1.736l5.3,5.229H1.219a1.219,1.219,0,1,0,0,2.439h14.2l-5.3,5.229a1.219,1.219,0,1,0,1.712,1.736L19.246,9.4a1.219,1.219,0,0,0,0-1.736Z" fill="#ffffff"/>
      </g>
    </g>
  </g>
</svg>
