<svg width="624" height="793" xmlns="http://www.w3.org/2000/svg" xmlns:xlink="http://www.w3.org/1999/xlink" overflow="hidden"><defs><clipPath id="clip0"><rect x="641" y="609" width="624" height="793"/></clipPath><clipPath id="clip1"><rect x="643" y="781" width="619" height="619"/></clipPath><clipPath id="clip2"><rect x="643" y="781" width="619" height="619"/></clipPath><clipPath id="clip3"><rect x="643" y="781" width="619" height="619"/></clipPath></defs><g clip-path="url(#clip0)" transform="translate(-641 -609)"><g clip-path="url(#clip1)"><g clip-path="url(#clip2)"><g clip-path="url(#clip3)"><path d="M1200.68 1164.44 1131.69 997.899 923.497 1084.16 992.487 1250.7ZM1124.72 1014.73 1183.86 1157.47 999.453 1233.85 940.324 1091.1Z" fill="#FFFFFF" fill-rule="nonzero" fill-opacity="1"/><path d="M992.61 1276.13C992.287 1281.13 991.55 1286.09 990.408 1290.97L1166.15 1218.26 1161.22 1206.36Z" fill="#FFFFFF" fill-rule="nonzero" fill-opacity="1"/><path d="M924.99 1183.01C930.673 1184.45 936.199 1186.46 941.49 1188.98L808.929 875.058 797.071 880.067 815.939 924.743 751.274 951.69C747.972 953.007 746.362 956.752 747.68 960.055 748.997 963.357 752.742 964.966 756.044 963.649 756.105 963.625 756.165 963.6 756.225 963.574L820.947 936.607Z" fill="#FFFFFF" fill-rule="nonzero" fill-opacity="1"/><path d="M902.787 1193C860.123 1193 825.537 1227.59 825.537 1270.25 825.537 1312.91 860.123 1347.5 902.787 1347.5 945.451 1347.5 980.037 1312.91 980.037 1270.25 979.991 1227.6 945.432 1193.05 902.787 1193ZM902.787 1334.62C867.234 1334.62 838.412 1305.8 838.412 1270.25 838.412 1234.7 867.234 1205.88 902.787 1205.88 938.34 1205.88 967.162 1234.7 967.162 1270.25 967.123 1305.79 938.324 1334.59 902.787 1334.62Z" fill="#FFFFFF" fill-rule="nonzero" fill-opacity="1"/><path d="M902.787 1238.06C885.011 1238.06 870.6 1252.47 870.6 1270.25 870.6 1288.03 885.011 1302.44 902.787 1302.44 920.564 1302.44 934.975 1288.03 934.975 1270.25 934.954 1252.48 920.555 1238.08 902.787 1238.06ZM902.787 1289.56C892.121 1289.56 883.475 1280.92 883.475 1270.25 883.475 1259.58 892.121 1250.94 902.787 1250.94 913.454 1250.94 922.1 1259.58 922.1 1270.25 922.1 1280.92 913.454 1289.56 902.787 1289.56Z" fill="#FFFFFF" fill-rule="nonzero" fill-opacity="1"/></g></g></g><path d="M854.707 898.415 1055.25 814.791 1122.45 975.938 921.901 1059.56Z" stroke="#FFFFFF" stroke-width="13.75" stroke-linecap="butt" stroke-linejoin="miter" stroke-miterlimit="8" stroke-opacity="1" fill="none" fill-rule="nonzero"/><path d="M773.663 705.963 974.211 622.339 1041.41 783.485 840.858 867.109Z" stroke="#FFFFFF" stroke-width="13.75" stroke-linecap="butt" stroke-linejoin="miter" stroke-miterlimit="8" stroke-opacity="1" fill="none" fill-rule="nonzero"/></g></svg>