<svg id="Phone-in-talk-02" xmlns="http://www.w3.org/2000/svg" width="512" height="512" viewBox="0 0 512 512">
  <path id="Path_1" data-name="Path 1" d="M100.69,56.89H58.03A423.925,423.925,0,0,0,79.36,164.7l34.14-34.42A350.2,350.2,0,0,1,100.69,56.89ZM347.03,432.64a425.487,425.487,0,0,0,108.08,21.61V411.58a403.478,403.478,0,0,1-73.97-12.81Z" fill="rgba(255,255,255,0)" fill-rule="evenodd"/>
  <path id="Path_2" data-name="Path 2" d="M341.33,256h56.89A142.279,142.279,0,0,0,256,113.78v56.89A85.211,85.211,0,0,1,341.33,256Zm113.78,0H512C512,114.64,397.36,0,256,0V56.89A198.963,198.963,0,0,1,455.11,256Zm28.45,99.56A323.1,323.1,0,0,1,382,339.34a32.482,32.482,0,0,0-8.81-1.42A29.068,29.068,0,0,0,353,346.17l-62.58,62.58A427.916,427.916,0,0,1,102.98,221.31l62.58-62.86c7.94-7.42,10.22-18.5,7.11-28.44A323.056,323.056,0,0,1,156.45,28.45,28.55,28.55,0,0,0,128,0H28.44A28.539,28.539,0,0,0,0,28.44C0,295.53,216.47,512,483.56,512A28.533,28.533,0,0,0,512,483.56V384A28.533,28.533,0,0,0,483.56,355.56ZM57.75,56.89h42.67a391.457,391.457,0,0,0,12.78,73.39L79.09,164.7A435.576,435.576,0,0,1,57.75,56.89ZM455.11,454.25a423.147,423.147,0,0,1-108.08-21.61l34.11-34.14a362.369,362.369,0,0,0,73.97,12.81v42.94Z" fill="#fff" fill-rule="evenodd"/>
</svg>
