<svg width="152" height="152" xmlns="http://www.w3.org/2000/svg" xmlns:xlink="http://www.w3.org/1999/xlink" overflow="hidden"><defs><clipPath id="clip0"><rect x="564" y="248" width="152" height="152"/></clipPath><clipPath id="clip1"><rect x="565" y="249" width="150" height="151"/></clipPath><clipPath id="clip2"><rect x="565" y="249" width="150" height="151"/></clipPath><clipPath id="clip3"><rect x="565" y="249" width="150" height="151"/></clipPath></defs><g clip-path="url(#clip0)" transform="translate(-564 -248)"><g clip-path="url(#clip1)"><g clip-path="url(#clip2)"><g clip-path="url(#clip3)"><path d="M53.6711 103.434C53.6711 108.894 48.2214 113.321 41.4989 113.321 34.7763 113.321 29.3266 108.894 29.3266 103.434 29.3266 97.9731 34.7763 93.5464 41.4989 93.5464 48.2214 93.5464 53.6711 97.9731 53.6711 103.434Z" stroke="#FFFFFF" stroke-width="3.00898" stroke-linecap="butt" stroke-linejoin="miter" stroke-miterlimit="4" stroke-opacity="1" fill="none" fill-rule="nonzero" transform="matrix(0.740612 -0.671933 0.667483 0.74555 506.6 303.582)"/><path d="M131.271 103.434C131.271 108.894 125.822 113.321 119.099 113.321 112.377 113.321 106.927 108.894 106.927 103.434 106.927 97.9731 112.377 93.5464 119.099 93.5464 125.822 93.5464 131.271 97.9731 131.271 103.434Z" stroke="#FFFFFF" stroke-width="3.00898" stroke-linecap="butt" stroke-linejoin="miter" stroke-miterlimit="4" stroke-opacity="1" fill="none" fill-rule="nonzero" transform="matrix(0.740612 -0.671933 0.667483 0.74555 526.497 355.724)"/><path d="M31.6078 37.5 29.3297 48.4375 11.9406 48.4375 10.9641 53.125 28.3531 53.125 27.0516 59.375 15.0656 59.375 14.0891 64.0625 26.075 64.0625 24.7734 70.3125 5.69062 70.3125 4.71406 75 23.7969 75 36.9406 75 96.4781 75 104.291 37.5 31.6078 37.5Z" stroke="#FFFFFF" stroke-width="3" stroke-linecap="butt" stroke-linejoin="miter" stroke-miterlimit="4" stroke-opacity="1" fill="none" fill-rule="nonzero" transform="matrix(1 0 0 1.00667 565 249)"/><path d="M143.717 76.25 136.739 70C135.807 69.1605 135.262 67.9731 135.234 66.7188L134.355 55.9375C133.955 50.6861 129.482 46.6862 124.219 46.875L108.594 46.875 104.03 68.75 102.077 78.125 96.875 103.125 103.125 103.125C104.916 94.5312 113.411 87.5 122.005 87.5 130.598 87.5 136.159 94.5312 134.375 103.125 138.007 102.966 141.091 100.413 141.927 96.875L145.183 81.25C145.632 79.4409 145.071 77.5305 143.717 76.25ZM110.28 68.75 113.534 53.125 122.909 53.125C125.492 52.9511 127.727 54.9042 127.901 57.4872 127.905 57.5434 127.908 57.5998 127.909 57.6563L128.789 68.4375C128.756 68.5938 128.912 68.5938 128.88 68.75Z" stroke="#FFFFFF" stroke-width="3" stroke-linecap="butt" stroke-linejoin="miter" stroke-miterlimit="4" stroke-opacity="1" fill="none" fill-rule="nonzero" transform="matrix(1 0 0 1.00667 565 249)"/><path d="M17.9375 103.125 25.75 103.125C27.5406 94.5312 36.0359 87.5 44.6297 87.5 53.2234 87.5 58.7906 94.5312 57 103.125L90.625 103.125 95.1828 81.25 22.5 81.25Z" stroke="#FFFFFF" stroke-width="3" stroke-linecap="butt" stroke-linejoin="miter" stroke-miterlimit="4" stroke-opacity="1" fill="none" fill-rule="nonzero" transform="matrix(1 0 0 1.00667 565 249)"/></g></g></g></g></svg>